<?xml version="1.0" standalone="no"?>
<!DOCTYPE svg PUBLIC "-//W3C//DTD SVG 20010904//EN"
 "http://www.w3.org/TR/2001/REC-SVG-20010904/DTD/svg10.dtd">
<svg version="1.0" xmlns="http://www.w3.org/2000/svg"
 width="1280.000000pt" height="871.000000pt" viewBox="0 0 1280.000000 871.000000"
 preserveAspectRatio="xMidYMid meet">
<metadata>
Created by potrace 1.15, written by Peter Selinger 2001-2017
</metadata>
<g transform="translate(0.000000,871.000000) scale(0.100000,-0.100000)"
fill="#000000" stroke="none">
<path d="M4790 8626 c-98 -132 -207 -251 -401 -436 -457 -435 -613 -604 -735
-795 -120 -187 -200 -387 -238 -598 l-22 -118 -64 83 c-91 119 -309 332 -418
408 -159 112 -328 190 -511 236 -203 52 -325 62 -856 74 -236 5 -475 14 -530
20 -128 13 -326 46 -417 70 -65 17 -73 17 -104 3 -35 -17 -54 -54 -54 -105 0
-68 62 -132 185 -188 90 -42 213 -83 700 -235 643 -201 1127 -392 1580 -623
115 -59 118 -61 80 -61 -64 -1 -281 -30 -390 -52 -604 -121 -1118 -466 -1447
-969 -128 -195 -223 -424 -248 -597 -16 -109 -11 -124 43 -144 l45 -16 153
155 c327 329 525 454 964 612 439 157 538 198 810 339 144 75 373 207 480 277
l28 19 -15 -25 c-56 -89 -494 -832 -690 -1170 -1086 -1874 -1637 -3001 -1729
-3535 -5 -33 -14 -136 -18 -230 -7 -137 -13 -181 -31 -228 -12 -31 -20 -62
-18 -68 2 -6 -89 -58 -202 -116 -197 -102 -450 -241 -575 -317 -33 -20 -69
-36 -80 -36 -11 0 -28 -12 -39 -26 -18 -26 -18 -26 14 -59 28 -29 35 -32 56
-23 17 8 94 8 271 -1 544 -25 817 -36 1708 -66 1194 -41 3120 -62 4375 -48
980 11 1457 8 2545 -19 678 -16 2113 -16 2460 0 436 21 871 52 1185 85 l115
12 0 50 c0 42 -3 50 -20 54 -11 2 -81 40 -155 86 -1544 939 -3171 1493 -4905
1670 -634 65 -1398 72 -2075 19 -835 -64 -1760 -234 -2554 -469 -104 -31 -193
-52 -197 -48 -30 32 -89 267 -110 437 -19 155 -6 510 26 726 108 728 413 1609
943 2725 201 423 302 625 312 625 32 0 159 -81 229 -145 101 -92 153 -177 340
-552 186 -370 285 -520 454 -686 222 -217 537 -395 892 -502 50 -15 95 -29
101 -32 5 -2 24 16 41 39 l30 43 -63 100 c-120 189 -242 447 -439 930 -148
363 -283 593 -440 750 -148 149 -306 242 -527 309 l-108 33 72 12 c130 23 389
91 553 146 554 184 1025 452 1426 811 110 99 249 247 249 266 0 6 -10 27 -22
47 -12 20 -22 37 -23 38 -6 10 -913 -182 -1240 -262 -703 -174 -998 -297
-1280 -536 -113 -96 -166 -138 -210 -165 -30 -18 -30 -18 -15 1 62 78 163 189
340 371 349 358 502 575 585 829 74 227 74 487 0 731 -15 49 -32 94 -38 100
-7 6 -30 14 -52 17 -39 4 -41 3 -85 -57z"/>
</g>
</svg>
